<mxfile host="app.diagrams.net" modified="2024-05-07T05:46:34.317Z" agent="Mozilla/5.0 (Macintosh; Intel Mac OS X 10_15_7) AppleWebKit/537.36 (KHTML, like Gecko) Chrome/124.0.0.0 Safari/537.36" version="21.6.6" etag="r5-6TfNJnu_24VYAsVlK" type="github">
  <diagram name="Page-1" id="is1g7SA4HyeRxpL6Ex82">
    <mxGraphModel>
      <root>
        <mxCell id="0" />
        <mxCell id="1" parent="0" />
      </root>
    </mxGraphModel>
  </diagram>
</mxfile>
